# xmcd CD database file generated by LOLA_Freedb v0.9beta0
# 
# Track frame offsets:
#      150
#      7384
#      21423
#      32206
#      43049
#      50309
#      65003
#      73837
#      79839
#      91196
# 
# Disc length: 1282 seconds
# 
# Revision: 0 
# Processed by: cddbd v1.5.2PL0 Copyright (c) Steve Scherf et al.
# Submitted via: LOLA_Freedb v0.9beta0
# 
DISCID=8a05000a
DTITLE=VFL Wittekind Wildeshausen - Alte Herren
DYEAR=1900
DGENRE=
TTITLE0=Schwarze Haare, dunkelblaue Augen
TTITLE1=Und scheint der Mond so hell
TTITLE2=Tambourspieler
TTITLE3=Tippelbrüder
TTITLE4=Wildeshauser Farben
TTITLE5=Rheinmarsch
TTITLE6=In Junkers Kneipe
TTITLE7=Huntetal
TTITLE8=Heimatlied
TTITLE9=Der Hase
EXTD=
EXTT0=
EXTT1=
EXTT2=
EXTT3=
EXTT4=
EXTT5=
EXTT6=
EXTT7=
EXTT8=
EXTT9=
PLAYORDER=
